<?xml version="1.0" encoding="UTF-8"?>
<svg width="50px" height="30px" viewBox="0 0 50 30" version="1.1" xmlns="http://www.w3.org/2000/svg" xmlns:xlink="http://www.w3.org/1999/xlink">
    <title>C7885FD7-F745-4A20-8978-8ADE51D8873D</title>
    <g id="Page-1" stroke="none" stroke-width="1" fill="none" fill-rule="evenodd">
        <g id="Tematiskie-ziedi" transform="translate(-835.000000, -4428.000000)">
            <g id="Content" transform="translate(0.000000, 748.000000)">
                <g id="Group-3" transform="translate(0.000000, 2158.000000)">
                    <g id="Footer" transform="translate(0.000000, 1357.000000)">
                        <g id="Block-3" transform="translate(775.000000, 80.000000)">
                            <g id="Cards" transform="translate(0.000000, 45.000000)">
                                <g id="ic-card_paypal" transform="translate(85.000000, 55.000000) scale(1, -1) translate(-85.000000, -55.000000) translate(60.000000, 40.000000)">
                                    <rect id="Rectangle" fill="#E8EDED" x="0.0928217822" y="0.0751689845" width="49.5049505" height="29.5081967" rx="2"></rect>
                                    <path d="M30.4610209,16.5985457 C30.3280265,15.7310261 29.6611729,15.7310261 29.0159622,15.7310261 L28.6489731,15.7310261 L28.9064928,17.3507699 C28.9218624,17.4486152 29.0068659,17.5205968 29.1066116,17.5205968 L29.2750502,17.5205968 C29.7141824,17.5205968 30.1288487,17.5205968 30.3427688,17.2722444 C30.4707445,17.1236069 30.5093254,16.9029877 30.4610209,16.5985457 M30.1802899,18.8620738 L27.7474974,18.8620738 C27.5809408,18.8620738 27.4394775,18.7417927 27.4134432,18.5785096 L26.4297871,12.3812288 C26.4103398,12.2590781 26.5056942,12.1484569 26.6299059,12.1484569 L27.8782961,12.1484569 C27.9946661,12.1484569 28.0937845,12.2325913 28.1119771,12.3466402 L28.3911398,14.1038036 C28.4168604,14.2670868 28.5586373,14.3873679 28.7248803,14.3873679 L29.4946163,14.3873679 C31.0971353,14.3873679 32.0221359,15.1576654 32.2636586,16.6848614 C32.3725007,17.352328 32.26805,17.8770776 31.9534431,18.2444647 C31.6074696,18.64831 30.9942528,18.8620738 30.1802899,18.8620738" id="Shape" fill="#0079C1"></path>
                                    <path d="M13.1091188,16.5985457 C12.9761245,15.7310261 12.3092709,15.7310261 11.6640602,15.7310261 L11.2970711,15.7310261 L11.5545908,17.3507699 C11.5699604,17.4486152 11.6549639,17.5205968 11.7547096,17.5205968 L11.9231482,17.5205968 C12.3622804,17.5205968 12.7769467,17.5205968 12.9908668,17.2722444 C13.1188425,17.1236069 13.1574234,16.9029877 13.1091188,16.5985457 M12.8283879,18.8620738 L10.3955954,18.8620738 C10.2290388,18.8620738 10.0875755,18.7417927 10.0615412,18.5785096 L9.07788504,12.3812288 C9.05843775,12.2590781 9.15347851,12.1484569 9.27800386,12.1484569 L10.4398223,12.1484569 C10.6060652,12.1484569 10.7475285,12.268738 10.7735627,12.4317095 L11.0392377,14.1038036 C11.0649583,14.2670868 11.2067353,14.3873679 11.3729782,14.3873679 L12.1427143,14.3873679 C13.7452332,14.3873679 14.6702339,15.1576654 14.9117566,16.6848614 C15.0205987,17.352328 14.9161479,17.8770776 14.6015411,18.2444647 C14.2555676,18.64831 13.6423508,18.8620738 12.8283879,18.8620738" id="Shape" fill="#00457C"></path>
                                    <path d="M18.4763497,14.3737194 C18.3637437,13.712485 17.8355303,13.2684421 17.1614624,13.2684421 C16.8236442,13.2684421 16.5529506,13.3765704 16.3791797,13.580986 C16.2069771,13.7835319 16.1420483,14.0723934 16.1966261,14.3936624 C16.3013905,15.0492878 16.8383865,15.5073531 17.5021035,15.5073531 C17.833021,15.5073531 18.101519,15.3982899 18.2787402,15.1920048 C18.4572161,14.9841615 18.5274772,14.6937419 18.4763497,14.3737194 M20.0998843,16.6263412 L18.9349292,16.6263412 C18.8351835,16.6263412 18.75018,16.5543595 18.7344967,16.4562027 L18.6833692,16.1327525 L18.6021297,16.2499175 C18.3496287,16.6135652 17.7872258,16.7354044 17.2257639,16.7354044 C15.9387928,16.7354044 14.8393939,15.7663002 14.6254738,14.4073732 C14.5141224,13.7293119 14.67221,13.0814767 15.0592737,12.6293319 C15.4146571,12.2139571 15.9218548,12.0410141 16.526289,12.0410141 C17.5638957,12.0410141 18.1391589,12.7028717 18.1391589,12.7028717 L18.0870904,12.3812911 C18.0676431,12.2591404 18.1626838,12.1485192 18.2875228,12.1485192 L19.3364215,12.1485192 C19.5029781,12.1485192 19.6444414,12.2684887 19.6704757,12.4317718 L20.3003168,16.3935692 C20.319764,16.51572 20.2244096,16.6263412 20.0998843,16.6263412" id="Shape" fill="#00457C"></path>
                                    <path d="M35.8282831,14.3737194 C35.715677,13.712485 35.1874637,13.2684421 34.5133957,13.2684421 C34.1755776,13.2684421 33.904884,13.3765704 33.7311131,13.580986 C33.5585968,13.7835319 33.4939817,14.0723934 33.5485595,14.3936624 C33.6533239,15.0492878 34.1903199,15.5073531 34.8540369,15.5073531 C35.1849544,15.5073531 35.4534524,15.3982899 35.6306736,15.1920048 C35.8091495,14.9841615 35.8794106,14.6937419 35.8282831,14.3737194 M37.4518177,16.6263412 L36.2868626,16.6263412 C36.1871169,16.6263412 36.1021134,16.5543595 36.0864301,16.4562027 L36.0353026,16.1327525 L35.9537494,16.2499175 C35.7015621,16.6135652 35.1391592,16.7354044 34.5776973,16.7354044 C33.2907262,16.7354044 32.1913273,15.7663002 31.9774072,14.4073732 C31.8660558,13.7293119 32.0241434,13.0814767 32.4112071,12.6293319 C32.7665905,12.2139571 33.2737882,12.0410141 33.8782224,12.0410141 C34.9158291,12.0410141 35.4910923,12.7028717 35.4910923,12.7028717 L35.4390237,12.3812911 C35.4195765,12.2591404 35.5146172,12.1485192 35.6394562,12.1485192 L36.6883549,12.1485192 C36.8549115,12.1485192 36.9963748,12.2684887 37.0224091,12.4317718 L37.6522501,16.3935692 C37.6716974,16.51572 37.576343,16.6263412 37.4518177,16.6263412" id="Shape" fill="#0079C1"></path>
                                    <path d="M26.3044148,16.62631 L25.1335001,16.62631 C25.0215214,16.62631 24.916757,16.5711552 24.8540238,16.478919 L23.2386446,14.1156759 L22.5542256,16.3866827 C22.5112534,16.5287764 22.3795137,16.62631 22.2302088,16.62631 L21.0793687,16.62631 C20.9404147,16.62631 20.842551,16.4904485 20.8874052,16.3598843 L22.1765719,12.6000095 L20.9639396,10.9001822 C20.8688989,10.7668135 20.9648806,10.5823409 21.1295552,10.5823409 L22.2992153,10.5823409 C22.4099393,10.5823409 22.5137627,10.6362493 22.5771232,10.7266159 L26.4709714,16.3100269 C26.5641302,16.4437071 26.4681484,16.62631 26.3044148,16.62631" id="Shape" fill="#00457C"></path>
                                    <path d="M38.8248586,18.6917795 L37.8264602,12.381073 C37.8070129,12.2589223 37.9020536,12.1483011 38.026579,12.1483011 L39.0309371,12.1483011 C39.19718,12.1483011 39.338957,12.2685821 39.3646776,12.4318653 L40.3492748,18.629146 C40.3687221,18.7512968 40.2736813,18.861918 40.1488423,18.861918 L39.0252911,18.861918 C38.9252317,18.861918 38.8402283,18.7899363 38.8248586,18.6917795" id="Shape" fill="#0079C1"></path>
                                </g>
                            </g>
                        </g>
                    </g>
                </g>
            </g>
        </g>
    </g>
</svg>