<?xml version="1.0" encoding="UTF-8"?>
<svg width="14px" height="14px" viewBox="0 0 14 14" version="1.1" xmlns="http://www.w3.org/2000/svg" xmlns:xlink="http://www.w3.org/1999/xlink">
    <title>ABBEEC1F-EE7E-4C6A-8BA6-4EAAF3DC2AFB</title>
    <g id="Page-1" stroke="none" stroke-width="1" fill="none" fill-rule="evenodd">
        <g id="Tematiskie-ziedi" transform="translate(-375.000000, -1169.000000)" fill="#891F61">
            <g id="Content" transform="translate(0.000000, 748.000000)">
                <g id="Group-4" transform="translate(375.000000, 275.000000)">
                    <g id="Row-1" transform="translate(0.000000, 139.000000)">
                        <path d="M7,7 C7.55228475,7 8,7.44771525 8,8 L8,10.266 L9.1339746,8.30384758 C9.41011697,7.82555495 10.0217074,7.6616798 10.5,7.93782217 C10.9782926,8.21396455 11.1421678,8.82555495 10.8660254,9.30384758 L9.732,11.267 L11.6961524,10.1339746 C12.174445,9.85783222 12.7860355,10.0217074 13.0621778,10.5 C13.3383202,10.9782926 13.174445,11.589883 12.6961524,11.8660254 L10.732,13 L13,13 C13.5522847,13 14,13.4477153 14,14 C14,14.5522847 13.5522847,15 13,15 L10.733,15 L12.6961524,16.1339746 C13.174445,16.410117 13.3383202,17.0217074 13.0621778,17.5 C12.7860355,17.9782926 12.174445,18.1421678 11.6961524,17.8660254 L9.732,16.732 L10.8660254,18.6961524 C11.1421678,19.174445 10.9782926,19.7860355 10.5,20.0621778 C10.0217074,20.3383202 9.41011697,20.174445 9.1339746,19.6961524 L8,17.733 L8,20 C8,20.5522847 7.55228475,21 7,21 C6.44771525,21 6,20.5522847 6,20 L6,17.732 L4.8660254,19.6961524 C4.58988303,20.174445 3.97829262,20.3383202 3.5,20.0621778 C3.02170738,19.7860355 2.85783222,19.174445 3.1339746,18.6961524 L4.267,16.732 L2.30384758,17.8660254 C1.82555495,18.1421678 1.21396455,17.9782926 0.937822174,17.5 C0.661679799,17.0217074 0.825554954,16.410117 1.30384758,16.1339746 L3.267,14.999 L1,15 C0.44771525,15 0,14.5522847 0,14 C0,13.4477153 0.44771525,13 1,13 L3.266,12.999 L1.30384758,11.8660254 C0.825554954,11.589883 0.661679799,10.9782926 0.937822174,10.5 C1.21396455,10.0217074 1.82555495,9.85783222 2.30384758,10.1339746 L4.266,11.266 L3.1339746,9.30384758 C2.85783222,8.82555495 3.02170738,8.21396455 3.5,7.93782217 C3.97829262,7.6616798 4.58988303,7.82555495 4.8660254,8.30384758 L6,10.267 L6,8 C6,7.44771525 6.44771525,7 7,7 Z M7,12 C5.8954305,12 5,12.8954305 5,14 C5,15.1045695 5.8954305,16 7,16 C8.1045695,16 9,15.1045695 9,14 C9,12.8954305 8.1045695,12 7,12 Z" id="ic-bulletpoint"></path>
                    </g>
                </g>
            </g>
        </g>
    </g>
</svg>