<?xml version="1.0" encoding="UTF-8"?>
<svg width="24px" height="24px" viewBox="0 0 24 24" version="1.1" xmlns="http://www.w3.org/2000/svg" xmlns:xlink="http://www.w3.org/1999/xlink">
    <!-- Generator: sketchtool 63.1 (101010) - https://sketch.com -->
    <title>00234E2B-BA65-4575-9D26-DE5DC559FA0A</title>
    <desc>Created with sketchtool.</desc>
    <g id="Page-1" stroke="none" stroke-width="1" fill="none" fill-rule="evenodd">
        <g id="Overlayed-search-1" transform="translate(-1353.000000, -23.000000)" fill="#EC426D" fill-rule="nonzero">
            <g id="Close" transform="translate(1330.000000, 0.000000)">
                <path d="M23.7843055,23.0885912 L23.8535534,23.1464466 L35,34.293 L46.1464466,23.1464466 L46.2156945,23.0885912 C46.4105626,22.9535951 46.679987,22.9728803 46.8535534,23.1464466 C47.0271197,23.320013 47.0464049,23.5894374 46.9114088,23.7843055 L46.8535534,23.8535534 L35.707,35 L46.8535534,46.1464466 C47.0488155,46.3417088 47.0488155,46.6582912 46.8535534,46.8535534 C46.679987,47.0271197 46.4105626,47.0464049 46.2156945,46.9114088 L46.1464466,46.8535534 L35,35.707 L23.8535534,46.8535534 L23.7843055,46.9114088 C23.5894374,47.0464049 23.320013,47.0271197 23.1464466,46.8535534 C22.9728803,46.679987 22.9535951,46.4105626 23.0885912,46.2156945 L23.1464466,46.1464466 L34.293,35 L23.1464466,23.8535534 C22.9511845,23.6582912 22.9511845,23.3417088 23.1464466,23.1464466 C23.320013,22.9728803 23.5894374,22.9535951 23.7843055,23.0885912 Z" id="ic-close_popup"></path>
            </g>
        </g>
    </g>
</svg>