<?xml version="1.0" encoding="UTF-8"?>
<svg width="24px" height="24px" viewBox="0 0 24 24" version="1.1" xmlns="http://www.w3.org/2000/svg" xmlns:xlink="http://www.w3.org/1999/xlink">
    <!-- Generator: sketchtool 63.1 (101010) - https://sketch.com -->
    <title>C9790C8E-08A1-46EC-8873-26776B51F09B</title>
    <desc>Created with sketchtool.</desc>
    <g id="Page-1" stroke="none" stroke-width="1" fill="none" fill-rule="evenodd" opacity="0.5">
        <g id="Overlayed-search-1" transform="translate(-654.000000, -223.000000)" fill="#FFFFFF" fill-rule="nonzero">
            <g id="Close-link" transform="translate(654.000000, 223.000000)">
                <path d="M0.784305503,0.0885911588 L0.853553391,0.146446609 L12,11.293 L23.1464466,0.146446609 L23.2156945,0.0885911588 C23.4105626,-0.0464048927 23.679987,-0.0271197425 23.8535534,0.146446609 C24.0271197,0.320012961 24.0464049,0.589437362 23.9114088,0.784305503 L23.8535534,0.853553391 L12.707,12 L23.8535534,23.1464466 C24.0488155,23.3417088 24.0488155,23.6582912 23.8535534,23.8535534 C23.679987,24.0271197 23.4105626,24.0464049 23.2156945,23.9114088 L23.1464466,23.8535534 L12,12.707 L0.853553391,23.8535534 L0.784305503,23.9114088 C0.589437362,24.0464049 0.320012961,24.0271197 0.146446609,23.8535534 C-0.0271197425,23.679987 -0.0464048927,23.4105626 0.0885911588,23.2156945 L0.146446609,23.1464466 L11.293,12 L0.146446609,0.853553391 C-0.0488155365,0.658291245 -0.0488155365,0.341708755 0.146446609,0.146446609 C0.320012961,-0.0271197425 0.589437362,-0.0464048927 0.784305503,0.0885911588 Z" id="ic-close_popup"></path>
            </g>
        </g>
    </g>
</svg>