<?xml version="1.0" encoding="UTF-8"?>
<svg width="15px" height="15px" viewBox="0 0 15 15" version="1.1" xmlns="http://www.w3.org/2000/svg" xmlns:xlink="http://www.w3.org/1999/xlink">
    <title>E5AFBF90-8DB7-4EE8-B7C2-65F2EB686089</title>
    <g id="Page-1" stroke="none" stroke-width="1" fill="none" fill-rule="evenodd" opacity="0.699999988">
        <g id="Tematiskie-ziedi" transform="translate(-1447.000000, -41.000000)">
            <g id="Navigation" transform="translate(376.000000, 0.000000)">
                <g id="1st" transform="translate(190.000000, 40.000000)">
                    <g id="Right-side" transform="translate(634.000000, 0.000000)">
                        <g id="Language" transform="translate(247.000000, 0.000000)">
                            <g id="icon" transform="translate(0.000000, 1.000000)">
                                <circle id="Oval" stroke="#525556" cx="7.5" cy="7.5" r="7"></circle>
                                <path d="M7.5,4 C9.47790456,4 11.2709907,4.42100746 12.5680067,5.11274935 C13.1897975,5.44437111 13.6948822,5.8363185 14.0371484,6.27701384 C14.329755,6.65376837 14.5,7.06495525 14.5,7.5 C14.5,7.93504475 14.329755,8.34623163 14.0371484,8.72298616 C13.6948822,9.1636815 13.1897975,9.55562889 12.5680067,9.88725065 C11.2709907,10.5789925 9.47790456,11 7.5,11 C5.52209544,11 3.72900929,10.5789925 2.43199326,9.88725065 C1.81020246,9.55562889 1.30511779,9.1636815 0.962851568,8.72298616 C0.670245,8.34623163 0.5,7.93504475 0.5,7.5 C0.5,7.06495525 0.670245,6.65376837 0.962851568,6.27701384 C1.30511779,5.8363185 1.81020246,5.44437111 2.43199326,5.11274935 C3.72900929,4.42100746 5.52209544,4 7.5,4 L7.5,4 Z" id="Oval" stroke="#525556" transform="translate(7.500000, 7.500000) rotate(-270.000000) translate(-7.500000, -7.500000) "></path>
                                <rect id="Rectangle" fill="#525556" x="0.652173913" y="7.17391304" width="14.3478261" height="1"></rect>
                                <line x1="0.326086957" y1="7.5" x2="14.673913" y2="7.5" id="Path-2" stroke="#525556"></line>
                            </g>
                        </g>
                    </g>
                </g>
            </g>
        </g>
    </g>
</svg>