<?xml version="1.0" encoding="UTF-8"?>
<svg width="26px" height="17px" viewBox="0 0 26 17" version="1.1" xmlns="http://www.w3.org/2000/svg" xmlns:xlink="http://www.w3.org/1999/xlink">
    <title>E1435E28-E663-4385-AFE8-50460BA08F2E</title>
    <g id="Page-1" stroke="none" stroke-width="1" fill="none" fill-rule="evenodd">
        <g id="Tematiskie-ziedi" transform="translate(-1069.000000, -2407.000000)" fill="#EC426D" fill-rule="nonzero">
            <g id="Content" transform="translate(0.000000, 748.000000)">
                <g id="Card" transform="translate(375.000000, 1630.000000)">
                    <g id="Quote" transform="translate(694.000000, 29.000000)">
                        <path d="M3.47892687,6.14880098 C4.12616908,6.14880098 4.64531127,6.35780628 5.03635344,6.77581687 C5.42739561,7.19382747 5.62291669,7.73993808 5.62291669,8.41414871 C5.62291669,9.1422962 5.38694297,9.71537524 4.91499552,10.1333858 C4.44304808,10.5513964 3.80254798,10.7604017 2.99349522,10.7604017 C2.04960033,10.7604017 1.31471074,10.396328 0.788826442,9.66818049 C0.262942147,8.94003301 0,7.90174863 0,6.55332736 C0,5.33974822 0.269684254,4.21381646 0.809052761,3.17553209 C1.34842127,2.13724771 2.15747403,1.09222123 3.23621104,0.0404526381 C3.26317947,0.0134842127 3.30363211,0 3.35756896,0 C3.43847423,0 3.5058953,0.0404526381 3.55983215,0.121357914 C3.613769,0.20226319 3.613769,0.269684254 3.55983215,0.323621104 C2.23837931,1.67204237 1.57765288,3.26317947 1.57765288,5.09703239 C1.57765288,5.8521483 1.71249501,6.40500102 1.98217926,6.75559055 C2.22489509,6.35106417 2.72381096,6.14880098 3.47892687,6.14880098 Z M10.4772333,6.14880098 C11.1244755,6.14880098 11.6436177,6.35780628 12.0346598,6.77581687 C12.425702,7.19382747 12.6212231,7.73993808 12.6212231,8.41414871 C12.6212231,9.1422962 12.3852494,9.71537524 11.9133019,10.1333858 C11.4413545,10.5513964 10.8008544,10.7604017 9.9918016,10.7604017 C9.04790671,10.7604017 8.31301712,10.396328 7.78713282,9.66818049 C7.26124853,8.94003301 6.99830638,7.90174863 6.99830638,6.55332736 C6.99830638,5.33974822 7.26799064,4.21381646 7.80735914,3.17553209 C8.34672765,2.13724771 9.15578041,1.09222123 10.2345174,0.0404526381 C10.2614859,0.0134842127 10.3019385,0 10.3558753,0 C10.4367806,0 10.5042017,0.0404526381 10.5581385,0.121357914 C10.6120754,0.20226319 10.6120754,0.269684254 10.5581385,0.323621104 C9.23668569,1.67204237 8.57595927,3.26317947 8.57595927,5.09703239 C8.57595927,5.8521483 8.71080139,6.40500102 8.98048565,6.75559055 C9.22320148,6.35106417 9.72211735,6.14880098 10.4772333,6.14880098 Z" id="Shape"></path>
                        <path d="M16.0094215,6.2 C16.9533164,6.2 17.688206,6.56407374 18.2140902,7.29222123 C18.7399745,8.02036871 19.0029167,9.05865309 19.0029167,10.4070744 C19.0029167,11.6206535 18.7332324,12.7465853 18.1938639,13.7848696 C17.6544954,14.823154 16.8454427,15.8681805 15.7667056,16.9199491 C15.7397372,16.9469175 15.6992846,16.9604017 15.6453477,16.9604017 C15.5644425,16.9604017 15.4970214,16.9199491 15.4430845,16.8390438 C15.3891477,16.7581385 15.3891477,16.6907175 15.4430845,16.6367806 C16.7645374,15.2883593 17.4252638,13.6972223 17.4252638,11.8633693 C17.4252638,11.1082534 17.2904217,10.5554007 17.0207374,10.2048112 C16.7780216,10.6093375 16.2791057,10.8116007 15.5239898,10.8116007 C14.8767476,10.8116007 14.3576054,10.6025954 13.9665633,10.1845848 C13.5755211,9.76657425 13.38,9.22046364 13.38,8.54625301 C13.38,7.81810552 13.6159737,7.24502648 14.0879212,6.82701589 C14.5598686,6.4090053 15.2003687,6.2 16.0094215,6.2 Z M23.0077279,6.2 C23.9516227,6.2 24.6865123,6.56407374 25.2123966,7.29222123 C25.7382809,8.02036871 26.0012231,9.05865309 26.0012231,10.4070744 C26.0012231,11.6206535 25.7315388,12.7465853 25.1921703,13.7848696 C24.6528018,14.823154 23.843749,15.8681805 22.765012,16.9199491 C22.7380436,16.9469175 22.697591,16.9604017 22.6436541,16.9604017 C22.5627488,16.9604017 22.4953278,16.9199491 22.4413909,16.8390438 C22.3874541,16.7581385 22.3874541,16.6907175 22.4413909,16.6367806 C23.7628438,15.2883593 24.4235702,13.6972223 24.4235702,11.8633693 C24.4235702,11.1082534 24.2887281,10.5554007 24.0190438,10.2048112 C23.776328,10.6093375 23.2774121,10.8116007 22.5222962,10.8116007 C21.875054,10.8116007 21.3559118,10.6025954 20.9648696,10.1845848 C20.5738275,9.76657425 20.3783064,9.22046364 20.3783064,8.54625301 C20.3783064,7.81810552 20.6142801,7.24502648 21.0862275,6.82701589 C21.558175,6.4090053 22.1986751,6.2 23.0077279,6.2 Z" id="Shape"></path>
                    </g>
                </g>
            </g>
        </g>
    </g>
</svg>