<?xml version="1.0" encoding="UTF-8"?>
<svg width="14px" height="13px" viewBox="0 0 14 13" version="1.1" xmlns="http://www.w3.org/2000/svg" xmlns:xlink="http://www.w3.org/1999/xlink">
    <title>28D592C6-AB43-43A6-AD47-B280E629E9A7</title>
    <g id="Page-1" stroke="none" stroke-width="1" fill="none" fill-rule="evenodd">
        <g id="Tematiskie-ziedi" transform="translate(-423.000000, -2408.000000)" fill="#891F61" fill-rule="nonzero">
            <g id="Content" transform="translate(0.000000, 748.000000)">
                <g id="Card" transform="translate(375.000000, 1630.000000)">
                    <g id="Group-12" transform="translate(30.000000, 23.000000)">
                        <path d="M21.2256626,20.0043826 C21.0373069,20.0047223 20.8535474,19.9468474 20.7000521,19.8388418 C20.4039892,19.6301696 20.2704853,19.2612312 20.3654134,18.9140669 L21.3833458,15.236635 L18.3313007,12.842794 C18.0449142,12.6204872 17.9297267,12.2446515 18.0430909,11.9024184 C18.1595291,11.5590981 18.4772569,11.321872 18.8428949,11.3052583 L22.7665775,11.1076494 L24.1682055,7.55415631 C24.3045915,7.2193064 24.6328998,7 24.9977941,7 C25.3626885,7 25.6909968,7.2193064 25.8273828,7.55415631 L27.2342669,11.1076494 L31.1570735,11.3052583 C31.5226235,11.322113 31.8402291,11.5592479 31.9568775,11.9024184 C32.0701663,12.2444732 31.9553878,12.6201162 31.6695437,12.842794 L28.6227547,15.2331682 L29.6415631,18.9106001 C29.7365745,19.2579595 29.6026509,19.6270914 29.3060484,19.835375 C29.0070701,20.0456691 28.6091671,20.0559478 28.2995043,19.8613762 L25.0039263,17.7812827 L21.7083483,19.8613762 C21.5646293,19.9538245 21.3970849,20.0034633 21.2256626,20.0043826 L21.2256626,20.0043826 Z" id="ic_star_filled"></path>
                    </g>
                </g>
            </g>
        </g>
    </g>
</svg>