<?xml version="1.0" encoding="UTF-8"?>
<svg width="140px" height="88px" viewBox="0 0 140 88" version="1.1" xmlns="http://www.w3.org/2000/svg" xmlns:xlink="http://www.w3.org/1999/xlink">
    <title>93CB4FB6-7275-41A7-A320-31AAE2B86B6E</title>
    <g id="Page-1" stroke="none" stroke-width="1" fill="none" fill-rule="evenodd">
        <g id="Tematiskie-ziedi" transform="translate(-376.000000, -30.000000)" fill="#891F61">
            <g id="Logo" transform="translate(376.000000, 0.000000)">
                <path d="M55.5512925,30 C55.5512925,31.4309528 55.5512925,32.8627034 55.5512925,34.3905956 C56.21753,34.5441827 56.8191115,34.5848733 57.8532051,34.5800862 C58.517033,33.9976521 62.2875594,34.3905956 63.6079866,34.3905956 C67.7491804,34.3905956 72.601188,34.1324896 76.2685059,34.5800862 C76.7299325,34.6363349 76.6198969,34.1237131 76.843984,34.0076253 C77.0355423,34.0076253 77.5166469,34.0076253 77.4194622,34.0076253 C77.4194622,34.163207 77.4194622,33.816539 77.4194622,33.7211953 C78.6358776,33.2955397 79.4944765,34.1193249 80.2968529,34.3905956 C80.2968529,32.9580471 80.2968529,31.6216401 80.2968529,30.286031 C81.0092732,30.1591721 81.353034,30.0231378 82.3108256,30 C82.5537874,30.604774 82.2742809,30.0414885 82.5987655,30.286031 C82.5646304,31.3655287 82.3477719,33.4216008 82.8863038,34.0076253 C82.8863038,34.1029689 82.8863038,34.1983126 82.8863038,34.3905956 C83.826827,34.2609442 85.2741566,34.1308938 85.7636945,34.5800862 C85.8596745,34.5800862 85.9556544,34.5800862 86.2431927,34.5800862 C86.2431927,35.0572034 86.2431927,35.5343206 86.2431927,36.0114379 C85.7251419,36.252789 86.009869,35.9751355 85.7636945,36.4769862 C84.8231712,36.2647568 83.3758417,36.1347065 82.8863038,36.5838988 C82.223279,37.3394674 82.5987655,43.0178009 82.5987655,44.5991493 C82.5987655,52.327571 82.5987655,60.0579873 82.5987655,67.786409 C83.2650029,68.0369354 83.8665844,68.077626 84.9006781,68.07244 C84.996658,67.786409 85.0922364,67.4999791 85.1882164,67.2139481 C85.7636945,67.2139481 86.3391726,67.2139481 86.9146508,67.2139481 C87.1576126,66.8888222 86.8781061,67.1720607 87.2025907,66.9275181 C87.2025907,66.6414872 87.2025907,66.3550572 87.2025907,66.0686273 C87.5861089,66.0686273 87.9700287,66.0686273 88.353547,66.0686273 C88.5451053,66.4504009 88.7370652,66.8321745 88.9290251,67.2139481 C89.2165634,67.3092917 89.5045033,67.5015748 89.7920415,67.4999791 C89.7920415,68.2635262 89.7920415,69.364566 89.7920415,70.0666783 C87.4905305,70.0666783 85.1882164,70.0666783 82.8863038,70.0666783 C82.6433419,70.1149485 82.9228484,69.8317101 82.5987655,70.0762526 C82.6192466,71.0935176 82.5533858,72.0186304 82.3108256,72.652925 C81.5827434,73.0466664 81.3317497,73.5632775 80.2968529,73.9881353 C80.2968529,72.5575814 80.2968529,71.316917 80.2968529,70.0762526 C78.6410982,69.3873049 74.9312119,70.0666783 72.5276971,70.0666783 C66.9652771,70.0666783 61.4012508,70.0666783 55.8388308,70.0666783 C55.6725726,70.2274461 55.6195628,70.2597592 55.5512925,70.9351434 C55.8388308,71.0304871 56.1267707,71.1262297 56.414309,71.2215733 C56.5102889,71.6986906 56.6062689,72.1758078 56.7022488,72.652925 C55.24247,73.3366867 55.3211816,73.5249805 52.9614401,73.5114169 C52.9614401,72.3664951 52.9614401,71.2211744 52.9614401,70.0762526 C52.5000134,69.9031181 52.2783359,70.1544424 51.7827741,70.0666783 C51.7827741,69.2177607 51.7827741,68.6449009 51.7827741,68.07244 C52.0076644,68.07244 52.289982,68.07244 52.6735002,68.07244 C53.2377338,66.5617017 52.9758973,63.7652202 52.9614401,61.7749711 C52.3458029,61.0748534 52.6735002,56.6072648 52.6735002,55.1906734 C52.6735002,48.8936034 52.6735002,42.5945388 52.6735002,36.4769862 C51.7145038,36.4769862 50.7555074,36.4769862 49.7961095,36.4769862 C49.5539508,35.658786 49.6302529,34.7408539 49.7145867,33.7211953 C50.0458983,33.8241186 50.6338257,33.4367601 51.7827741,33.4347654 C51.6185239,33.816539 51.7145038,34.1983126 51.8104838,34.5800862 C52.0980221,34.4847425 52.3859619,34.3889999 52.6735002,34.3905956 C52.6554287,32.9819828 52.7811263,31.8043489 52.9614401,30.8584919 C54.370217,30.7938656 54.4007378,30.2708717 55.5512925,30 Z M65.334421,38.5877114 C66.5251347,38.9068534 66.797011,39.6301089 67.3483938,40.5915241 C67.4443737,40.5915241 67.5403537,40.5915241 67.6363336,40.5915241 C67.6363336,40.7822114 67.6363336,40.9732976 67.6363336,41.163985 C67.731912,41.163985 67.827892,41.163985 67.9238719,41.163985 C67.9238719,41.4504149 67.9238719,41.7364459 67.9238719,42.0228758 C68.2118118,42.2135631 68.4993501,42.4046494 69.0149913,42.5953367 C69.0748282,43.4538286 69.3627681,44.3131183 69.6503064,45.1716102 C69.7462863,45.1716102 69.8422663,45.1716102 69.9382462,45.1716102 C69.9382462,45.277326 69.9382462,44.9809229 69.9382462,44.8855792 C70.0338246,44.8855792 70.1298046,44.8855792 70.2257845,44.8855792 C70.3217645,44.408462 70.4177444,43.9313447 70.5137244,43.4542275 C70.6093027,43.4542275 70.7052827,43.4542275 71.0831787,43.4542275 C71.0831787,43.1677976 71.0831787,42.8813677 71.0831787,42.5953367 C70.8972426,42.5953367 70.9932226,42.5953367 71.0892025,42.5953367 C71.0892025,42.4046494 71.0892025,42.2135631 71.0892025,42.0228758 C71.2807608,41.9275321 71.4727208,41.8317895 71.6646807,41.7364459 C71.6646807,41.4504149 71.6646807,41.163985 71.6646807,40.877555 C71.760259,40.877555 71.856239,40.877555 71.952219,40.877555 C71.952219,40.8771561 71.952219,40.4961804 71.952219,40.6497675 C72.0481989,40.6497675 72.1441789,40.6497675 72.2401588,40.6497675 C72.2401588,40.0190631 72.2401588,39.7326332 72.2401588,39.4466022 C72.4317171,39.3508597 72.6236771,39.255516 73.1553819,39.1601723 C73.1553819,38.969485 73.1553819,38.7783987 73.1553819,38.5877114 C73.1031752,38.3970241 73.3911151,38.2059378 73.6786534,38.0152505 C73.6786534,37.7288206 73.6786534,37.4423907 73.6786534,37.1563597 C73.7746334,37.1563597 73.8706133,37.1563597 73.9665933,37.1563597 C74.1581516,36.8699298 74.3501115,36.5838988 74.5420714,36.4769862 C70.7056843,36.4769862 66.868494,36.4769862 63.0325085,36.4769862 C63.0325085,36.3928125 63.0325085,36.4885551 63.0325085,36.5838988 C63.1280868,36.5838988 63.2240668,36.5838988 63.3200467,36.5838988 C63.3200467,36.9556992 63.3200467,36.7745861 63.3200467,36.8699298 C63.607585,36.8699298 63.8955249,36.8699298 64.1834648,36.8699298 C64.1834648,36.9656724 64.1834648,37.061016 64.1834648,37.1563597 C65.0874433,37.6235038 65.1039085,37.7084753 65.334421,38.5877114 Z M70.5137244,46.316532 C71.0831787,46.316532 71.0892025,46.316532 71.3767408,46.316532 C71.3767408,46.2211884 71.3767408,46.1258447 71.3767408,46.030501 C72.1634552,45.3096391 71.8478056,44.7670978 72.2401588,43.7402585 C72.3357372,43.7402585 72.4317171,43.7402585 72.5276971,43.7402585 C72.5276971,43.3588838 72.5276971,42.9771103 72.5276971,42.5953367 C72.6236771,42.5953367 72.719657,42.5953367 73.1553819,42.5953367 C73.0071953,42.0228758 73.3762563,41.4504149 73.3911151,40.877555 C73.4866935,40.877555 73.741703,40.877555 73.6786534,40.877555 C73.7746334,40.4008367 73.8706133,39.9233206 73.9665933,39.4466022 C74.2541315,39.255516 74.5420714,39.0648287 74.8296097,38.8737424 C75.0978717,38.468831 75.573354,37.4304229 75.6930277,36.5838988 C74.5553239,36.9277743 75.3315969,36.6565036 74.8296097,37.4427896 C74.7336297,37.4427896 74.6376498,37.4427896 74.5420714,37.4427896 C74.5420714,37.6334769 74.5420714,37.8241643 74.5420714,38.0152505 C74.2541315,38.2059378 73.9665933,38.3970241 73.6786534,38.5877114 C73.741703,38.969485 73.4866935,39.3512586 73.3911151,39.7326332 C73.3762563,39.8279769 73.0071953,39.9237195 73.1553819,40.0190631 C73.1553819,40.2097505 73.1553819,40.4008367 73.1553819,40.5915241 C72.719657,40.5915241 72.6236771,40.5915241 72.5276971,40.5915241 C72.5276971,40.7822114 72.5276971,40.9732976 72.5276971,41.163985 C72.4317171,41.163985 72.3357372,41.163985 72.2401588,41.163985 C72.2401588,41.4504149 72.2401588,41.7364459 72.2401588,42.0228758 C72.1441789,42.0228758 72.0481989,42.0228758 71.952219,42.0228758 C71.952219,42.2135631 71.952219,42.4046494 71.952219,42.5953367 C71.856239,42.5953367 71.760259,42.5953367 71.6646807,42.5953367 C71.6646807,42.8813677 71.6646807,43.1677976 71.6646807,43.4542275 C71.4727208,43.5495712 71.2807608,43.6449148 71.0892025,43.7402585 C70.8972426,44.5991493 70.7052827,45.5047146 70.5137244,46.316532 Z M79.7213747,43.1677976 C79.3025166,45.7688046 78.5643946,48.4727349 77.7070004,50.6105872 C77.7375213,51.1830481 77.5150405,51.7559079 77.4194622,52.3283688 C77.5166469,52.4237125 77.0355423,52.5190562 76.843984,52.6143998 C76.843984,52.8054861 76.843984,52.9961734 76.843984,53.1868607 C76.5560441,53.377947 76.2685059,53.5686343 75.980566,53.7593216 C75.7890077,54.4275251 75.6693339,55.0953297 75.4050878,55.7635332 C75.6693339,55.7635332 75.7890077,55.7635332 75.980566,55.7635332 C76.1311622,55.4699226 76.5178931,55.2608846 76.5560441,55.1906734 C76.6520241,54.713955 76.748004,54.3010651 76.843984,53.7593216 C77.1315223,53.5686343 77.4194622,53.377947 77.7070004,53.1868607 C77.7070004,52.9961734 77.7070004,52.8054861 77.7070004,52.6143998 C77.8029804,52.6143998 77.8989603,52.6143998 77.9949403,52.6143998 C78.0905187,52.0419389 78.1864986,51.7638865 78.2824786,50.8970171 C78.3784585,50.8970171 78.4744385,50.8970171 78.5704184,50.8970171 C78.5704184,50.7059309 78.5704184,50.5152435 78.5704184,50.3245562 C78.6659968,50.3245562 78.7619768,50.3245562 78.8579567,50.3245562 C78.8579567,50.0381263 78.8579567,49.7516964 78.8579567,49.6774959 C78.9539367,49.6774959 79.0499166,49.6774959 79.1458966,49.6774959 C79.5848342,48.7978608 79.3374549,48.1296573 79.4334349,47.5911053 C79.8097245,47.3665091 79.8173547,47.2707665 80.2474573,47.1754228 C80.2474573,46.9847355 80.2474573,46.7936493 80.2474573,46.6029619 C80.104893,46.6029619 80.2008729,46.6029619 80.2968529,46.6029619 C80.2968529,45.5047146 80.2968529,44.3127194 80.2968529,43.1677976 C80.104893,43.1677976 79.9129331,43.1677976 79.7213747,43.1677976 Z M55.5512925,45.5047146 C55.5512925,47.8432274 55.5512925,50.2292125 55.5512925,52.6143998 C55.6468709,52.6143998 55.7428509,52.6143998 55.8388308,52.6143998 C55.8388308,52.8054861 55.8388308,52.9961734 55.8388308,53.1868607 C56.1480549,53.1868607 56.0307907,53.1868607 56.1267707,53.1868607 C56.3914183,53.4940349 56.1030769,53.2123921 56.414309,53.4732906 C56.414309,53.5686343 56.414309,53.663978 56.414309,53.7593216 C56.7018472,53.7593216 56.9897871,53.7593216 57.277727,53.7593216 C57.6375514,54.0042631 57.6082354,54.8495904 57.8532051,55.1906734 C58.3146318,55.9167213 60.8739634,56.9898362 61.8815522,57.194486 C62.0895757,57.9855591 62.2040287,57.975187 62.8023975,58.0533768 C62.8023975,58.1487205 62.8023975,58.4778356 62.8023975,58.3398067 C63.1280868,58.3398067 63.5120066,58.3398067 63.8955249,58.3398067 C63.8955249,58.4351504 63.8955249,58.5304941 63.8955249,58.701235 C64.8545213,58.7211814 65.8139192,58.816924 66.9427881,58.9122676 C66.9427881,58.7215803 66.9427881,58.5304941 66.9427881,58.3398067 C66.5809557,58.3398067 66.7219137,58.3398067 66.1974375,58.3398067 C66.1974375,58.0533768 66.1974375,57.7673458 66.1974375,57.4809159 C65.6219593,57.0991423 65.0464812,56.7173687 64.471003,56.3359941 C64.6497105,56.0495642 64.2790431,55.7631343 64.1834648,55.4771033 C63.9915048,55.4771033 63.7995449,55.4771033 63.6079866,55.4771033 L63.0325085,54.9046424 C63.0325085,54.7135561 63.0325085,54.5228688 63.0325085,54.3321815 C62.5815231,53.7597206 61.6895922,53.1868607 61.0181341,52.6143998 C60.9221542,52.2330252 60.8261742,51.9912751 60.7703533,51.7638865 C60.1551177,51.0877044 59.579238,50.7059309 59.0041614,50.3245562 C59.0041614,50.13347 59.0041614,49.9427826 59.0041614,49.7516964 C58.8122015,49.6563527 58.6202416,49.5610091 58.4286833,49.6774959 C58.4411326,49.0838918 58.2367234,48.7021182 58.1407434,48.3207436 C58.2162423,48.225001 57.7572252,48.1296573 57.5652653,48.0343137 C57.2974049,47.5643771 57.6459848,47.2069381 57.277727,46.8893919 C57.0857671,46.8893919 56.8938072,46.8893919 56.7022488,46.8893919 C56.7022488,46.7936493 56.7022488,46.6983056 56.7022488,46.6029619 C56.2247586,46.14619 56.253673,46.3711851 56.1267707,45.5047146 C56.1480549,45.5047146 55.7428509,45.5047146 55.5512925,45.5047146 Z M79.7213747,49.1792355 C79.5278085,50.1817402 78.9250222,51.1994041 78.5704184,52.0419389 C78.5704184,52.3283688 78.5704184,52.6143998 78.5704184,52.9008297 C78.3784585,52.9961734 78.1864986,53.0915171 77.9949403,53.1868607 C77.9949403,53.377947 77.9949403,53.5686343 77.9949403,53.7593216 C77.8989603,53.7593216 77.8029804,53.7593216 77.7070004,53.7593216 C77.7070004,54.0457516 77.7070004,54.3321815 77.7070004,54.6182125 C77.7375213,54.6182125 77.5150405,54.6182125 77.4194622,54.6182125 C77.4194622,54.8092987 77.4194622,54.999986 77.4194622,55.1906734 C77.3234822,55.1906734 77.5166469,55.1906734 77.1315223,55.1906734 C76.8339443,55.6286957 76.7383659,55.6937209 76.5560441,56.3359941 C76.3644858,56.3359941 76.1725259,56.3359941 75.980566,56.3359941 C75.6468449,57.6731989 75.074981,58.9086773 73.9665933,59.7711584 C73.6786534,59.9618458 73.3911151,60.1525331 73.1031752,60.3436194 C73.1031752,60.5343067 73.1031752,60.7253929 73.1031752,60.9160803 C73.1553819,61.1067676 72.5276971,61.2978538 72.2401588,61.4885412 C72.1441789,61.7749711 72.0481989,62.0610021 71.952219,62.347432 C71.7606606,62.347432 71.5687007,62.347432 71.3767408,62.347432 C71.0892025,62.7292056 71.0831787,63.1105802 70.5137244,63.4923538 C70.3217645,63.4923538 70.1298046,63.4923538 69.9382462,63.4923538 C69.8422663,63.7787837 69.7462863,64.0648147 69.6503064,64.3512446 C69.5543264,64.3512446 69.4583464,64.3512446 69.3627681,64.3512446 C69.2358657,64.9604068 68.9788483,64.9237055 69.0149913,65.2101354 C68.4033701,65.3054791 68.0198519,65.558798 67.6363336,65.4961664 C67.5403537,65.6872527 67.4443737,65.87794 67.3483938,66.0686273 C67.2359486,66.0686273 66.9648755,66.0686273 66.9427881,66.0686273 C66.5809557,66.3550572 66.7219137,66.6414872 66.1974375,66.9275181 C65.8540782,67.1580982 64.9782109,67.1525132 64.8746008,67.4999791 C64.8746008,67.6910653 64.8746008,67.8817526 64.8746008,68.07244 C69.937443,68.07244 75.1179511,68.07244 80.2968529,68.07244 C80.2968529,61.77537 80.2968529,55.4763054 80.2968529,49.1792355 C80.104893,49.1792355 79.9129331,49.1792355 79.7213747,49.1792355 Z M55.5512925,60.0571894 C56.414309,59.7711584 57.277727,59.4847285 58.1407434,59.1982986 C58.1407434,59.102955 58.1407434,59.0076113 58.1407434,58.9122676 C59.0997398,58.7215803 60.0591378,58.5304941 61.0181341,58.3398067 C61.0181341,58.4778356 61.0181341,58.1487205 61.0181341,58.0533768 C60.9221542,58.0533768 60.8261742,58.0533768 60.7703533,58.0533768 C60.310533,56.7401076 60.5595186,57.68397 59.5796396,57.194486 C59.5796396,57.0991423 59.5796396,57.0037987 59.5796396,56.908455 C59.3876797,56.908455 59.1957197,56.908455 59.0041614,56.908455 C58.9081815,56.7177677 58.8122015,56.5266814 58.7162216,56.3359941 C58.5242616,56.3359941 58.4411326,56.3359941 58.1407434,56.3359941 C58.2162423,56.0495642 57.7572252,55.7631343 57.5652653,55.4771033 C56.6408056,54.9154134 56.4942253,55.1324299 55.8388308,53.7593216 C55.7428509,53.7593216 55.6468709,53.7593216 55.5512925,53.7593216 C55.5512925,56.1600671 55.5512925,57.9580331 55.5512925,60.0571894 Z M74.8296097,56.0495642 C74.6215862,56.8402384 74.7492917,56.6898428 73.9665933,56.908455 C73.8706133,57.3855722 73.7746334,57.8626895 73.6786534,58.3398067 C73.3911151,58.4351504 73.1031752,58.5304941 73.1553819,58.701235 C72.5276971,59.0076113 72.2401588,59.3893849 71.952219,59.7711584 C71.856239,59.7711584 71.760259,59.7711584 71.6646807,59.7711584 C71.6646807,59.6754159 71.6646807,59.5800722 71.6646807,59.4847285 C71.5687007,59.4847285 71.4727208,59.4847285 71.3767408,59.4847285 C71.3767408,59.1986975 71.3767408,58.9122676 71.3767408,58.701235 C71.308069,58.701235 70.9932226,58.701235 71.0831787,58.701235 C70.8920219,60.4086445 71.0550674,60.1645009 70.5137244,61.4885412 C69.0708123,62.1435801 68.0712554,63.2749383 66.1974375,63.4923538 C66.1974375,63.6830411 66.1974375,63.8741274 66.1974375,64.0648147 C65.5412398,64.1493873 65.4561027,64.1067021 65.0464812,64.3512446 C65.0464812,64.4465883 65.0464812,64.5419319 65.0464812,64.9604068 C64.8746008,64.9604068 64.471003,64.9604068 64.1834648,64.9604068 C64.1834648,64.7330182 64.1834648,64.8283619 64.1834648,64.9237055 C63.6079866,64.9237055 63.0321069,64.9237055 62.4570303,64.9237055 C62.4570303,65.1877955 62.4570303,65.1143928 62.4570303,65.2101354 C60.9181383,65.6401792 59.5250234,64.84392 58.4286833,64.9604068 C58.1985723,63.5645597 57.725098,63.5214755 57.5652653,62.347432 C58.0447634,61.9656584 58.5242616,61.5838848 59.0041614,61.2025102 C59.0041614,60.9160803 59.0041614,60.7876256 59.0041614,60.3436194 C60.0587362,59.9618458 61.1141141,59.5800722 62.1690904,59.1982986 C62.1690904,59.102955 62.1690904,59.0076113 62.1690904,58.9122676 C61.1755573,58.8951137 58.7716409,59.1544166 58.1407434,59.4847285 C58.0447634,59.6754159 58.2162423,59.8665021 57.8532051,60.0571894 C57.6612452,60.0571894 57.4692853,60.0571894 57.277727,60.0571894 C57.277727,60.1525331 57.277727,60.5642262 57.277727,60.3436194 C56.7821652,60.5881619 56.4339869,60.5921512 56.1267707,60.7876256 C56.1267707,60.8207366 56.1267707,61.0509177 56.1267707,61.2025102 C56.1480549,61.2978538 55.7428509,61.3931975 55.5512925,61.4885412 C55.5512925,63.2059239 55.5512925,64.9237055 55.5512925,66.6410882 C55.8785882,66.9674109 55.6657456,66.642285 55.8388308,67.2139481 C56.1263691,67.3092917 56.414309,67.5015748 56.7022488,67.4999791 C57.4861521,68.2894565 62.0871661,68.32536 63.3200467,67.786409 C63.3200467,67.6910653 63.3200467,67.5953227 63.3200467,67.4999791 C63.703565,67.5015748 64.0874848,67.3092917 64.471003,67.2139481 C64.8746008,66.8321745 65.0464812,66.4504009 65.334421,66.0686273 C65.6219593,66.0686273 65.9098992,66.0686273 66.1974375,66.0686273 C66.2934174,65.87794 66.7219137,65.6872527 66.4853773,65.4961664 C66.9427881,65.4961664 67.0608555,65.4961664 67.3483938,65.4961664 C67.5403537,65.2101354 67.731912,64.9237055 67.9238719,64.9604068 C68.1158318,64.9604068 68.3073902,64.9604068 68.4993501,64.9604068 C68.59533,64.3512446 68.69131,64.0648147 69.0149913,63.7787837 C68.8828683,63.7787837 68.9788483,63.7787837 69.0748282,63.7787837 C69.2667881,63.4923538 69.4583464,63.2059239 69.6503064,62.9198929 C69.8422663,62.9198929 70.0338246,62.9198929 70.2257845,62.9198929 C70.5137244,62.5381193 71.0831787,62.1563457 71.0892025,61.7749711 C71.3767408,61.6796274 71.6646807,61.5838848 71.952219,61.4885412 C72.1441789,60.9160803 72.3361388,60.3436194 72.5276971,59.7711584 C73.1553819,59.6754159 73.1031752,59.5800722 73.3911151,59.4847285 C73.3911151,59.3893849 73.3911151,59.2940412 73.3911151,59.1982986 C74.338867,58.3844866 75.1059035,57.5060483 75.4050878,56.0495642 C75.4484595,56.0495642 75.0215696,56.0495642 74.8296097,56.0495642 Z M75.4050878,61.2025102 C75.8299698,60.411437 75.4854058,60.5618327 76.2685059,60.3436194 C76.2685059,60.5642262 76.2685059,60.1525331 76.2685059,60.0571894 C76.9395624,60.0571894 77.7415372,60.0571894 78.2824786,60.0571894 C78.485683,60.5917522 78.5684105,61.1765799 78.5704184,62.0610021 C78.2338862,62.4990244 78.1362999,62.5468957 77.9949403,62.8740162 C77.8029804,62.8740162 77.7375213,62.8740162 77.4194622,62.8740162 C77.4194622,62.7292056 77.4194622,62.8245492 77.4194622,62.9198929 C76.939964,63.1014049 76.4600642,63.1105802 75.980566,63.2063228 C75.5010678,63.7787837 75.0215696,64.3512446 74.5420714,64.9237055 C74.3501115,64.9237055 74.1581516,64.9237055 73.9665933,64.9237055 C73.9665933,65.1877955 73.9665933,65.1143928 73.9665933,65.2101354 C73.7746334,65.2101354 73.741703,65.2101354 73.3911151,65.2101354 C73.3911151,65.3054791 73.3911151,65.558798 73.3911151,65.4961664 C73.1031752,65.4961664 73.1553819,65.4961664 72.5276971,65.4961664 C72.4317171,65.6872527 72.3357372,65.87794 72.2401588,66.0686273 C71.856239,66.1643699 71.4727208,66.2597136 71.0892025,66.3550572 C71.0892025,66.4504009 71.0892025,66.5457446 71.0892025,66.6410882 C70.5149291,67.076717 70.597255,67.1345615 69.3627681,67.2139481 C69.3627681,67.1182055 69.3627681,67.2741861 69.3627681,66.9275181 C69.4583464,66.9275181 69.5543264,66.9275181 69.6503064,66.9275181 C69.6503064,66.6414872 69.6503064,66.3550572 69.6503064,66.0686273 C69.9382462,65.87794 70.2257845,65.6872527 70.5137244,65.4961664 C70.5137244,65.3054791 70.5137244,65.1143928 70.5137244,64.9237055 L71.0892025,64.3512446 C71.0892025,64.1605573 71.0892025,63.969471 71.0892025,63.7787837 C71.3040531,63.7787837 71.2807608,63.7787837 71.3767408,63.7787837 C72.2919639,62.6653772 73.7698143,61.5475824 75.4050878,61.2025102 Z M3.75785763,79.8092847 C3.56629931,86.4881283 3.3743394,93.1689664 3.18237949,99.84781 C3.82452154,100.088762 4.74697325,100.46894 5.77223195,100.385165 C6.90351034,99.1445008 9.88571601,100.352852 11.5270134,99.84781 C11.5270134,99.7520674 11.5270134,99.6567237 11.5270134,99.56138 C11.8145517,99.56138 12.1024916,99.56138 12.3900299,99.56138 C12.3900299,99.4660364 12.3900299,99.3706927 12.3900299,99.2749501 C12.869528,99.2749501 13.4108711,99.2749501 13.828926,99.2749501 C13.828926,100.229185 13.828926,101.183419 13.828926,102.471556 C12.9305697,102.657855 12.8542676,102.991358 11.2390736,102.996544 C10.6824701,102.591234 9.09096985,102.710513 8.07414454,102.710114 C5.27104791,102.708918 2.40490168,103.062367 0.304988748,102.710114 C-0.106239182,100.413888 0.0174504685,97.1550496 0.0174504685,94.408833 C0.0174504685,89.8287468 0.0174504685,85.2478628 0.0174504685,80.6681756 C0.274869514,80.5197745 0.880466895,79.8092847 0.880466895,79.8092847 C1.83946328,79.8092847 2.79886125,79.8092847 3.75785763,79.8092847 Z M112.523629,80.0955495 C112.523629,85.4385501 112.523629,90.7833802 112.523629,96.212384 C112.331669,96.2215594 112.19794,96.316903 111.948151,96.4126456 C111.948151,96.6986766 111.948151,96.9851065 111.948151,97.2711375 C111.852171,97.2711375 111.97305,97.2711375 111.660211,97.2711375 C111.660211,97.5575674 111.660211,97.8439973 111.660211,98.2987746 C111.564633,98.2987746 111.468653,98.2987746 111.372673,98.2987746 C111.372673,98.6697772 111.372673,98.8935755 111.372673,99.2749501 C111.276693,99.2749501 111.180713,99.2749501 111.084733,99.2749501 C111.084733,99.56138 111.084733,99.84781 111.084733,100.385165 C110.989155,100.385165 110.893175,100.385165 110.797195,100.385165 C110.797195,100.324528 110.797195,100.612554 110.797195,100.706302 C110.701215,100.706302 110.605235,100.706302 110.509255,100.706302 C110.509255,100.897388 110.509255,101.088075 110.509255,101.278763 C110.317697,101.374505 110.125737,101.469849 109.933777,101.565193 C109.933777,101.75588 109.933777,101.946966 109.933777,102.471556 C109.646238,102.232997 109.679972,102.32874 109.07076,102.424083 C108.449501,102.795884 107.526246,103.365153 107.056386,103.855435 C106.385329,103.855435 105.764472,103.855435 105.042413,103.855435 C104.833988,102.859313 104.551671,102.610383 104.466935,101.278763 C105.521911,101.183419 106.576888,101.088075 107.631864,100.992732 C108.300511,99.7863751 109.484398,98.95142 109.933777,97.5575674 C109.933777,96.2219583 109.933777,94.8855513 109.933777,93.5499422 C109.934178,90.1794041 109.794425,86.4737669 109.646238,83.530879 C109.127786,83.2604062 109.193245,83.1343451 108.495282,83.0118744 C108.495282,82.4813009 108.495282,82.0037847 108.495282,81.5270664 C110.491183,80.6015547 109.70728,80.0849436 112.523629,80.0955495 Z M72.2401588,92.4046214 C72.3357372,92.786395 72.4317171,93.1681686 72.5276971,93.5499422 C73.2421253,93.858712 73.9256311,94.3477971 74.5420714,94.694864 C74.7336297,94.694864 74.9255896,94.694864 75.1175496,94.694864 C75.4444436,94.8855513 75.3091079,95.0766375 75.4050878,95.2673249 C76.1809593,95.7771542 77.0170692,96.190443 77.9949403,96.4126456 C78.2029638,97.2033198 78.0752583,97.0529242 78.8579567,97.2711375 C79.3254072,97.818067 79.8205674,97.8439973 80.872331,97.8435984 C80.872331,93.6456847 80.872331,89.4461754 80.872331,85.2482617 C80.7763511,85.2482617 80.6803711,85.2482617 80.5843912,85.2482617 C80.5843912,85.0575744 80.5843912,84.8664881 80.5843912,84.6758008 C80.3928328,84.8748656 80.2008729,84.4847146 80.2474573,84.3893709 C79.5486911,83.6768865 79.4800193,83.2480394 79.4334349,82.0995273 C81.0638894,82.0041836 82.6947454,81.908441 84.3251999,81.8130974 C84.3067268,83.6896521 83.8734114,85.2622242 83.4617819,86.6796134 C83.5577619,91.9271053 83.9501151,97.1761928 83.7497218,102.424083 C82.8658227,102.754794 81.5433876,102.993353 81.1598693,102.710114 C80.1149327,101.745508 81.1048515,101.133154 79.1458966,100.706302 C79.1458966,100.612554 79.1458966,100.324528 79.1458966,100.385165 C78.7093685,99.8262679 77.7479626,99.5793318 77.1315223,98.9889191 C76.939964,98.9889191 76.748004,98.9889191 76.5560441,98.9889191 C76.4600642,98.7978329 76.3640842,98.6071456 76.2685059,98.4164582 C75.6930277,98.225372 75.1175496,98.0346847 74.5420714,97.8435984 C74.4460915,97.6529111 74.3501115,97.4622238 74.2541315,97.2711375 C73.7746334,97.1757938 73.2951352,97.0804502 73.1553819,96.9851065 C72.4317171,96.5079893 72.0481989,96.030872 71.6646807,95.5537548 C71.4727208,95.5537548 71.2807608,95.5537548 71.0892025,95.5537548 C71.0892025,95.4584111 71.0892025,95.3626685 71.0892025,95.2673249 C70.8972426,95.2673249 70.7052827,95.2673249 70.5137244,95.2673249 C70.5137244,95.1719812 70.5137244,95.0766375 70.5137244,94.9812939 C70.3217645,94.9812939 70.1298046,94.9812939 69.9382462,94.9812939 C69.9382462,94.8859502 69.9382462,94.7902076 69.9382462,94.694864 C69.7462863,94.694864 69.5543264,94.694864 69.3627681,94.694864 L69.0149913,94.1618969 C68.59533,94.1618969 68.4033701,94.1618969 68.2118118,94.1618969 C67.7323136,93.5499422 67.2524138,92.9774813 66.9427881,92.4046214 C66.7219137,92.3092778 66.0054776,92.2139341 65.6219593,92.1185904 C65.6219593,92.0232468 65.6219593,91.9279031 65.6219593,91.8321605 C64.8384577,91.384165 64.6324421,91.1240643 63.6079866,90.9736686 C63.6079866,91.5461295 63.6079866,92.1185904 63.6079866,92.6910513 C63.5120066,92.6910513 63.4160267,92.6910513 63.3200467,92.6910513 C63.3200467,94.408434 63.3200467,96.212384 63.3200467,97.8435984 C63.2240668,97.8435984 63.1280868,97.8435984 63.0325085,97.8435984 C63.0325085,98.7024892 63.0325085,99.56138 63.0325085,100.420271 C62.9365285,100.420271 62.8405485,100.420271 62.8023975,100.420271 C62.8023975,100.610958 62.8023975,100.801646 62.8023975,100.992732 C62.6485886,100.992732 62.5526087,100.992732 62.4570303,100.992732 C62.281134,101.437536 62.3847441,101.992843 62.1690904,102.424083 C61.5269484,102.665036 60.6044967,102.718492 59.5796396,102.710114 C59.5796396,102.698945 59.5796396,102.328341 59.5796396,102.471556 C59.4836596,102.471556 59.3876797,102.471556 59.2916997,102.471556 C59.2374851,102.048693 59.4949041,102.247359 59.5796396,101.851623 C59.5796396,101.088075 59.5796396,100.324528 59.5796396,99.56138 C59.7711979,99.56138 60.2884455,99.56138 60.1551177,99.56138 C60.442656,98.7024892 60.7703533,97.8435984 61.0181341,96.9851065 C61.0181341,95.1723801 61.0181341,93.6712161 61.0181341,91.5461295 C61.0181341,90.591895 61.0181341,89.6376606 61.0181341,88.6834261 C60.9221542,88.6834261 60.8261742,88.6834261 60.7703533,88.6834261 C60.6346159,88.3016525 60.538636,87.9198789 60.442656,87.5385043 C59.8671778,87.061387 59.2916997,86.5842698 58.7162216,86.1071525 C58.7162216,85.9160663 58.7162216,85.725379 58.7162216,85.5346916 C58.4411326,85.2482617 58.2162423,85.098265 57.5652653,84.6758008 C57.5652653,84.4851135 57.5652653,84.2940272 57.5652653,84.1033399 C57.4692853,84.1033399 57.3733053,84.1033399 57.277727,84.1033399 C57.277727,83.4355353 57.277727,82.7673319 57.277727,82.0995273 C57.5652653,82.0041836 57.8532051,81.908441 58.1407434,81.8130974 C58.1407434,81.7177537 58.1407434,81.62241 58.1407434,81.5270664 C58.2367234,81.5270664 58.4411326,81.5270664 58.4286833,81.5270664 C58.4286833,81.62241 58.4286833,81.7177537 58.4286833,81.8130974 C59.0997398,81.908441 59.7711979,82.0041836 60.442656,82.0995273 C60.6346159,82.3855583 60.8261742,82.6719882 61.0181341,83.0118744 C61.2100941,83.0537618 61.4016524,83.1491054 61.5936123,83.2444491 C61.5936123,83.4351364 61.5936123,83.6262227 61.5936123,83.81691 C61.6895922,83.81691 61.7855722,83.81691 61.8815522,83.81691 C61.8815522,84.0075973 61.8815522,84.1986836 61.8815522,84.3893709 C61.9771305,84.3893709 62.0731105,84.3893709 62.1690904,84.3893709 C62.2650704,84.8748656 62.5815231,84.7711445 62.4570303,85.098265 C62.6485886,85.098265 62.8405485,85.098265 63.0325085,85.098265 C63.1280868,85.1529181 63.2240668,85.3436054 63.3200467,85.5346916 C63.5120066,85.5346916 63.703565,85.5346916 63.8955249,85.5346916 C63.8955249,85.6300353 63.8955249,85.725379 63.8955249,85.8207226 C64.2790431,86.1071525 64.6629629,86.3931835 65.0464812,86.6796134 C65.3219718,87.1248165 64.9545171,87.5245418 65.334421,87.8245353 C65.9094976,88.0156215 66.4853773,88.2063088 67.0608555,88.3969962 C67.4443737,88.8741134 67.827892,89.4984349 68.2118118,89.8283479 C68.4033701,89.9236915 68.59533,90.0194341 69.0149913,90.1147778 C69.0149913,90.3054651 69.0149913,90.4965514 69.0149913,90.6872387 C69.0933013,91.0606348 69.8165645,90.9999978 70.2257845,91.2596996 C70.3217645,91.4507859 70.4177444,91.6414732 70.5137244,91.8321605 C71.0888009,92.0232468 71.6646807,92.2139341 72.2401588,92.4046214 Z M30.4141821,83.530879 C31.1370437,83.7379224 30.8736008,83.6106645 31.0932705,84.3893709 C32.0084936,84.6315199 32.4940156,85.2682081 33.1072432,85.8207226 C33.2032231,86.0118089 33.2992031,86.2024962 33.395183,86.3931835 C33.5867414,86.3931835 33.7787013,86.3931835 33.9706612,86.3931835 C33.9706612,86.5842698 33.9706612,86.7749571 33.9706612,87.1886449 C34.6822783,87.5516689 34.9055622,88.0359668 35.4091558,88.3969962 C35.6011157,88.3969962 35.7930756,88.3969962 35.9846339,88.3969962 C36.1765938,88.6834261 36.3685537,89.2750355 36.5601121,89.255887 C36.752072,89.255887 36.9440319,89.255887 37.1355902,89.255887 L37.7110684,89.8283479 C37.7110684,90.0194341 37.7110684,90.2101215 37.7110684,90.4008088 C37.8070483,90.4008088 37.9030283,90.4008088 37.9990082,90.4008088 C38.1909681,90.6872387 38.3825265,90.9736686 38.5744864,91.2596996 C39.9246312,92.186807 41.3089112,91.8840211 41.7394154,93.8359731 C45.1444951,94.5101606 46.2255748,97.5990559 49.7961095,97.8435984 C49.7961095,93.6456847 49.7961095,89.4461754 49.7961095,85.2482617 C49.7005311,85.2482617 49.6045511,85.2482617 49.7145867,85.2482617 C49.7145867,85.0575744 49.7145867,84.8664881 49.7145867,84.6758008 C49.4125912,84.6758008 49.3166113,84.6758008 49.2206313,84.6758008 C49.1250529,83.9126526 49.029073,83.1491054 48.933093,82.3855583 C49.9603597,82.0033858 51.7855852,82.0859638 53.2489784,82.0995273 C53.2437577,83.6701047 52.9851339,84.4615768 52.6735002,85.5346916 C52.6735002,91.163957 52.6735002,96.7948181 52.6735002,102.424083 C52.3859619,102.698945 52.0980221,102.614771 51.8104838,102.710114 C51.8104838,102.805458 51.8104838,103.177657 51.8104838,102.996544 C51.1390257,102.996544 50.4675676,102.996544 49.7961095,102.996544 C49.6141893,101.218525 48.5246762,100.176925 47.2066586,99.56138 C46.9191203,99.56138 46.6311804,99.56138 46.3432406,99.56138 C46.0557023,99.1796065 45.7677624,98.7978329 45.5741962,98.4164582 C45.000726,98.3207156 44.5208262,98.225372 44.041328,98.2987746 C44.041328,98.0346847 44.041328,97.939341 44.041328,97.8435984 C43.8497697,97.8435984 43.6578097,97.8435984 43.5019929,97.8435984 C43.3702715,97.6529111 43.2742915,97.4622238 43.1783116,97.2711375 C42.6988134,97.1757938 42.2189136,97.0804502 41.7394154,96.9851065 C41.7394154,96.7940203 41.7394154,96.6033329 41.7394154,96.4126456 C41.4518771,96.316903 41.1639372,96.2215594 40.876399,96.212384 C40.876399,96.030872 40.876399,95.9355284 40.876399,95.8397858 C40.9880409,95.8397858 40.4928807,95.8397858 40.3009208,95.8397858 C40.2049409,95.6490984 40.1089609,95.4584111 40.012981,95.2673249 C39.4379044,95.0766375 38.8620247,94.8855513 38.2865465,94.694864 C38.1909681,94.5041766 38.0949882,94.3130904 37.9990082,94.1618969 C37.8070483,94.1618969 37.61549,94.1618969 37.4235301,94.1618969 C37.4235301,94.0270594 37.4235301,93.9317157 37.4235301,93.8359731 C37.2315702,93.8359731 37.3978283,93.8359731 36.8480519,93.8359731 C36.4645337,93.6752054 36.0806139,92.8817387 35.6970956,92.4046214 C35.5051357,92.4046214 35.3131758,92.4046214 35.1216175,92.4046214 C34.9296576,92.1185904 34.7376977,91.8321605 34.5461393,91.5461295 C33.9706612,91.5848255 33.395183,91.1643559 32.8197049,90.9736686 C32.8197049,91.1643559 32.8197049,91.5848255 32.8197049,91.5461295 C32.3715307,92.0814902 32.5325682,93.4346521 32.531765,94.408833 C32.5301587,96.6659645 32.5434111,99.5841189 31.9562869,101.278763 C31.9562869,101.660536 31.9562869,102.04231 31.9562869,102.424083 C31.6687486,102.698945 31.3808087,102.614771 31.0932705,102.710114 C31.0932705,102.805458 31.0932705,103.177657 31.0932705,102.996544 C30.5177923,102.996544 29.9423142,102.996544 29.366836,102.996544 C29.0564071,102.173956 29.0664469,100.794864 29.0788961,99.56138 C30.3033434,98.3414599 29.9435189,94.0414208 29.9423142,91.5461295 C29.9423142,90.591895 29.9423142,89.6376606 29.9423142,88.6834261 C30.1933078,88.6834261 29.7503542,88.6834261 29.6543743,88.6834261 C29.6543743,88.4927388 29.6543743,88.3016525 29.6543743,88.1109652 C29.462816,88.0156215 29.2708561,87.9198789 29.0788961,87.8245353 C28.9833178,87.4120443 28.8873378,86.8703008 28.7913579,86.3931835 C27.9283414,85.725379 27.0649234,85.0571755 26.2737916,84.3893709 C26.2737916,83.7215663 26.2737916,83.0533628 26.2737916,82.3855583 C26.9681403,81.9814448 27.5749424,81.8047199 28.7913579,81.8130974 C29.1190551,82.1390211 28.792161,81.9271906 29.366836,82.0995273 C29.7154159,82.7086895 30.0150019,82.722652 30.4141821,83.530879 Z M98.9996919,81.8130974 C98.9996919,82.4809019 98.9996919,83.1491054 98.9996919,83.81691 C98.6731994,84.05866 98.9579266,84.0570643 98.7121536,84.1033399 C97.273659,84.1986836 95.8343613,84.2940272 94.3958667,84.3893709 C93.605538,85.7002465 92.437715,85.6731195 92.381894,87.8245353 C92.285914,87.8245353 92.1899341,87.8245353 92.4517706,87.8245353 C92.4517706,88.1109652 92.4517706,88.3969962 92.4517706,88.6834261 C91.9979742,88.6834261 91.9023958,88.6834261 91.8064158,88.6834261 C91.8064158,88.8741134 91.8064158,89.0651997 91.8064158,89.255887 C91.7104359,89.255887 91.6144559,89.255887 91.518476,89.255887 C91.518476,89.9236915 91.518476,90.591895 91.518476,91.2596996 C93.7244086,91.2596996 95.9307428,91.2596996 98.1366755,91.2596996 C98.3025321,91.697323 98.3559435,91.8082249 98.4242138,92.4046214 C98.1507311,92.7297473 97.8957216,93.2004817 97.8487356,92.9774813 C97.5611973,92.9774813 97.2732575,92.9774813 96.9857192,92.9774813 C95.5142942,93.5810585 93.6509177,93.8263989 91.518476,93.8359731 C91.4498041,96.1888473 91.7554139,97.6285765 92.6694323,98.9889191 C92.9573721,99.1796065 93.2449104,99.3706927 93.5328503,99.56138 C93.5328503,99.7520674 93.5328503,99.9431536 93.5328503,100.385165 C93.8203886,100.324528 94.1083284,100.612554 94.3958667,100.706302 C94.3958667,100.801646 94.3958667,100.897388 94.3958667,100.992732 C94.7797865,100.992732 95.1633048,100.992732 95.546823,100.992732 C95.546823,101.088075 95.546823,101.183419 95.546823,101.278763 C95.8347629,101.278763 96.1223012,101.278763 96.410241,101.278763 C96.410241,101.374505 96.410241,101.469849 96.410241,101.565193 C97.7527556,101.995236 98.6523167,101.222913 99.57517,102.471556 C99.67115,102.471556 99.76713,102.471556 99.8631099,102.471556 C99.8631099,102.614771 99.8631099,103.091888 99.8631099,103.569005 C95.8821505,104.005831 93.9436766,103.667939 90.9429978,102.424083 C90.8470179,102.471556 90.7514395,101.851224 90.6554596,101.565193 C90.3675197,101.374505 90.3835833,101.183419 89.7920415,100.992732 C89.6960616,100.610958 89.6004832,100.229185 89.5045033,99.84781 C89.2165634,99.6567237 88.9290251,99.4660364 88.6410852,99.2749501 C88.6410852,99.0842628 88.6410852,98.8935755 88.6410852,98.7024892 C88.5451053,98.7024892 88.5362703,98.7024892 88.353547,98.7024892 C88.353547,97.939341 88.353547,97.1757938 88.353547,96.4126456 C88.257567,96.4126456 88.161587,96.4126456 88.31138,96.4126456 C88.31138,94.7906066 88.31138,93.1681686 88.31138,91.5461295 C88.161587,91.5461295 88.257567,91.5461295 88.353547,91.5461295 C88.5362703,90.1147778 88.5451053,88.6834261 88.6410852,87.2520744 C88.7370652,87.2520744 88.8330452,87.2520744 88.9290251,87.2520744 C88.9290251,87.1886449 88.9290251,86.6796134 88.9290251,86.3931835 C89.1205834,86.2978399 89.3125433,86.2024962 89.5045033,86.1071525 C90.0101048,85.3228612 90.7241314,83.9282108 90.9429978,83.0118744 C91.9678549,82.7421994 92.6646132,82.090352 93.5328503,81.8130974 C95.3548631,81.8130974 97.1776791,81.8130974 98.9996919,81.8130974 Z M129.500435,81.8130974 C129.596014,82.0995273 129.691994,82.3855583 129.787974,82.6719882 C129.883954,82.6719882 129.979934,82.6719882 130.075913,82.6719882 C130.075913,82.8626755 130.075913,83.0537618 130.075913,83.2444491 C130.171492,83.2444491 130.267472,83.2444491 130.363452,83.2444491 C130.363452,83.6262227 130.363452,84.0079963 130.363452,84.3893709 C130.459432,84.3893709 130.555412,84.3893709 130.651392,84.3893709 C130.74697,84.7711445 130.84295,85.1529181 130.93893,85.5346916 C131.273454,85.5346916 131.13089,85.5346916 131.22687,85.5346916 C131.22687,85.8207226 131.22687,86.1071525 131.22687,86.3931835 C131.322448,86.3931835 131.494329,86.3931835 131.514408,86.3931835 C131.514408,86.5842698 131.514408,86.7749571 131.514408,87.1886449 C131.610388,87.1886449 131.706368,87.1886449 131.802348,87.1886449 C131.802348,87.2520744 131.802348,87.5385043 131.802348,87.8245353 C131.897926,87.8245353 131.993906,87.8245353 132.089886,87.8245353 C132.185866,88.1109652 132.281846,88.3969962 132.377826,88.6834261 C132.665364,88.8741134 132.953304,89.0651997 133.240842,89.255887 C133.240842,89.5423169 133.240842,89.8283479 133.240842,90.1147778 C133.336822,90.1147778 133.566532,90.1147778 133.528782,90.1147778 C133.528782,90.4008088 133.528782,90.6872387 133.528782,90.9736686 C133.624361,90.9736686 133.720341,90.9736686 133.816321,90.9736686 C133.912301,91.5848255 134.008281,91.8122141 134.104261,92.1185904 C134.199839,92.1185904 134.295819,92.1185904 134.391799,92.1185904 C134.391799,92.4046214 134.391799,92.6910513 134.391799,92.9774813 C134.487779,92.9774813 134.583759,92.9774813 134.679739,92.9774813 C134.679739,93.1681686 134.679739,93.6712161 134.679739,93.5499422 C134.775317,93.5499422 134.871297,93.5499422 134.967277,93.5499422 C134.967277,93.8986048 134.967277,93.9317157 134.967277,94.1618969 C135.634719,94.5041766 135.926675,94.8859502 136.406173,95.2673249 C136.406173,95.5537548 136.406173,95.8397858 136.406173,96.212384 C136.501751,96.212384 136.597731,96.212384 136.693711,96.212384 C136.693711,96.316903 136.693711,96.5079893 136.693711,96.6986766 C136.789691,96.6986766 136.885671,96.6986766 136.981651,96.6986766 C136.981651,96.8893639 136.981651,97.0804502 136.981651,97.2711375 C137.07723,97.2711375 137.17321,97.2711375 137.26919,97.2711375 C137.26919,97.4622238 137.26919,97.6529111 137.26919,97.8435984 C137.365169,97.8435984 137.706922,97.8435984 137.557129,97.8435984 C137.652708,98.225372 137.748688,98.6071456 137.927797,98.9889191 C138.132608,99.0842628 138.420146,99.1796065 138.708086,99.2749501 C138.803664,99.56138 138.899644,99.84781 138.995624,100.385165 C139.187584,100.229185 139.379142,100.324927 139.571102,100.420271 C139.908839,100.972785 139.830128,101.83407 140,102.710114 C138.612106,102.614771 137.365169,102.698945 136.118233,102.424083 C135.926273,102.471556 135.734715,101.851224 135.542755,101.565193 C135.634719,101.565193 135.350795,101.565193 135.255217,101.565193 C135.255217,101.374505 135.255217,101.183419 135.255217,100.992732 C135.413845,100.897388 134.871297,100.801646 134.679739,100.706302 C134.679739,100.420271 134.679739,100.385165 134.679739,99.84781 C134.583759,99.84781 134.487779,99.84781 134.391799,99.84781 C134.391799,99.56138 134.391799,99.2749501 134.391799,98.9889191 C134.295819,98.9889191 134.199839,98.9889191 134.104261,98.9889191 C134.104261,98.7024892 134.104261,98.4164582 134.104261,98.2987746 C134.008281,98.2987746 133.912301,98.2987746 133.816321,98.2987746 C133.816321,97.939341 133.816321,98.071386 133.816321,97.5575674 C133.624361,97.4622238 133.566532,97.3664812 133.240842,97.2711375 C132.711146,96.7150326 133.552878,96.740564 132.377826,96.4126456 C131.793111,95.8912474 129.986761,96.212384 128.924957,96.212384 C127.486061,96.212384 126.047165,96.212384 124.839986,96.212384 C124.342015,96.3675668 124.579354,96.8418916 124.321132,97.2711375 C124.033192,97.4622238 123.745252,97.6529111 123.457714,97.8435984 C123.361734,98.4160593 123.265754,98.9889191 123.169774,99.56138 C123.074196,99.56138 123.137245,99.56138 122.882236,99.56138 C122.498718,100.610958 122.114798,101.660536 121.73128,102.710114 C121.059821,102.805458 120.388363,103.177657 119.716905,102.996544 C119.716905,103.091888 119.716905,103.187232 119.716905,103.282575 C118.949869,103.282575 118.406518,103.282575 117.414993,103.282575 C117.414993,102.614771 117.414993,101.946966 117.414993,101.278763 C117.990471,101.088075 118.631408,100.897388 119.141427,100.706302 C119.540206,100.410697 119.473542,99.7592481 119.716905,99.2749501 C119.812885,99.2749501 119.908865,99.2749501 120.004845,99.2749501 C120.004845,98.9889191 120.004845,98.7024892 120.004845,98.4164582 C120.100825,98.4164582 120.478721,98.4164582 120.292383,98.4164582 C120.388363,98.0346847 120.484343,97.6529111 120.699595,97.2711375 C120.772283,97.1757938 120.963841,97.0804502 121.155801,96.9851065 C121.155801,96.7940203 121.155801,96.6033329 121.155801,96.4126456 C121.251781,96.4126456 121.347761,96.4126456 121.44334,96.4126456 C121.44334,96.212384 121.44334,95.8397858 121.44334,95.5537548 C121.53932,95.5537548 121.6353,95.5537548 121.73128,95.5537548 C121.73128,95.3630675 121.73128,95.1719812 121.73128,94.9812939 C122.114798,94.694864 122.498718,94.408434 122.882236,94.1618969 C123.137245,93.5499422 123.074196,92.9774813 123.169774,92.4046214 C123.265754,92.4046214 123.361734,92.4046214 123.457714,92.4046214 C123.457714,92.2139341 123.457714,92.0232468 123.457714,91.8321605 C123.745252,91.6414732 124.033192,91.4507859 124.321132,91.2596996 C124.321132,90.7825824 124.321132,90.3054651 124.321132,89.8283479 C124.41671,89.8283479 124.51269,89.8283479 124.839986,89.8283479 C124.70465,89.4469732 124.80063,89.0651997 124.89661,88.6834261 C125.184148,88.4927388 125.472088,88.3016525 125.759627,88.1109652 C125.855607,86.2982388 125.951586,84.4847146 126.047566,82.6719882 C126.452771,82.4609556 126.91741,82.4733223 127.198523,81.8130974 C127.965559,81.8130974 128.732997,81.8130974 129.500435,81.8130974 Z M21.3101419,82.0995273 C21.118182,87.0605892 20.9262221,92.0236457 20.7346638,96.9851065 C20.7282384,98.9913127 21.1880586,102.47754 20.1591856,103.569005 C20.1591856,103.664349 20.1591856,103.759693 20.1591856,103.855435 C19.5837075,103.855435 19.0082293,103.855435 18.4327512,103.855435 C18.3367712,102.233396 18.2407913,100.610958 18.1448113,98.9889191 C18.0488314,98.9889191 17.953253,98.9889191 17.8572731,98.9889191 C17.8572731,96.6037319 17.8572731,94.2177467 17.8572731,91.8321605 C17.8805653,91.8321605 17.6653131,91.8321605 17.5693332,91.8321605 C17.4733532,88.7791687 17.5512616,85.72498 17.2817949,82.6719882 C17.6653131,82.788475 18.049233,82.4809019 18.4327512,82.3855583 C18.4327512,82.2902146 18.4327512,82.1948709 18.4327512,82.0995273 C19.619449,82.0995273 20.3511456,82.0995273 21.3101419,82.0995273 Z M131.22687,93.8359731 C131.221248,91.3279162 129.500034,89.5901882 128.980377,87.5385043 C128.310525,87.7798554 128.595252,87.5022019 128.349479,87.8245353 C128.253499,87.8245353 128.157519,87.8245353 128.061539,87.8245353 C127.965559,88.3016525 127.869579,88.7787697 127.774001,89.255887 C127.678021,89.255887 127.582041,89.255887 127.486061,89.255887 C127.486061,89.5423169 127.486061,89.8283479 127.486061,90.1147778 C127.390081,90.1147778 127.294101,90.1147778 127.198523,90.1147778 C127.198523,90.4008088 127.198523,90.6872387 127.198523,90.9736686 C127.102543,90.9736686 127.133064,90.9736686 126.910583,90.9736686 C126.340325,92.065932 126.102183,91.9378763 126.047566,93.5499422 C127.282455,94.0079109 129.53457,93.8503345 131.22687,93.8359731 Z M17.2817949,108.149091 C17.9528514,108.149091 18.6247111,108.149091 19.2957676,108.149091 C19.4829085,108.641368 19.5700534,109.048274 19.5837075,109.866873 C18.9170685,110.462073 18.315487,110.15809 17.2817949,110.152904 C17.2817949,109.4851 17.2817949,108.816896 17.2817949,108.149091 Z M44.904746,117.882124 C42.6084557,117.923213 40.0623765,117.971483 38.5744864,117.309663 C38.487743,116.459149 38.1540219,115.632173 37.9990082,115.01942 C38.1909681,113.874498 38.3825265,112.729178 38.5744864,111.584256 C39.4379044,111.208865 40.3856563,110.840256 41.4518771,110.725365 C41.4518771,110.821108 41.4518771,111.271896 41.4518771,111.011795 C41.9313753,111.107139 42.4108735,111.202482 42.8903717,111.499284 C42.8903717,110.34399 42.8903717,109.389756 42.8903717,108.435521 C43.3851303,108.249621 43.7939487,108.162655 44.6168061,108.149091 C45.4067332,110.278566 44.9192032,115.136705 44.904746,117.882124 Z M93.2449104,108.149091 C93.8203886,108.149091 94.3958667,108.149091 94.9713449,108.149091 C94.9713449,111.39317 94.9713449,114.638046 94.9713449,117.882124 C94.3958667,117.882124 93.8203886,117.882124 93.2449104,117.882124 C93.2449104,114.638046 93.2449104,111.39317 93.2449104,108.149091 Z M27.6404016,115.01942 C27.8909936,116.000782 28.5427738,115.756638 28.503418,116.737202 C28.7913579,116.737202 29.0788961,116.737202 29.366836,116.737202 C29.462816,116.355428 29.5587959,115.973655 29.6543743,115.591881 C30.4218123,115.591881 31.1892504,115.591881 31.9562869,115.591881 C31.9562869,116.122854 31.9562869,116.546116 31.9562869,117.023233 C31.5510828,117.234265 31.0864434,117.537849 30.8053306,117.882124 C29.462816,117.882124 28.1198998,117.882124 26.7769835,117.882124 C26.5653457,117.478808 26.2601375,117.01685 25.9139671,116.737202 C26.0529172,115.496537 25.7220072,114.255873 25.6260273,113.015608 C25.7220072,113.015608 26.0529172,113.015608 25.9139671,113.015608 C26.0099471,112.53849 26.1055254,112.061373 26.2737916,111.584256 C28.4588415,110.633612 32.0313842,110.218727 31.9562869,113.874498 C32.0522668,113.874498 32.1482468,113.874498 32.4863854,113.874498 C32.4863854,114.160529 32.4863854,114.446959 32.4863854,114.733389 C31.1482883,115.140295 29.1796952,115.033383 27.6404016,115.01942 Z M69.9382462,112.156717 C70.4117206,113.634743 70.5181419,112.783033 71.6646807,113.585675 C71.6646807,113.397381 71.6646807,113.492725 71.6646807,113.588068 C72.0481989,113.809074 72.4317171,113.779155 73.1553819,113.874498 C73.1553819,113.969842 73.1553819,114.065186 73.1553819,114.160529 C73.2907177,114.39071 73.7071663,114.050026 73.9665933,114.446959 C73.9665933,114.637647 73.9665933,114.828733 73.9665933,115.01942 C74.0621716,115.01942 74.1581516,115.01942 74.2541315,115.01942 C74.6340355,115.644938 73.7874842,117.535855 73.6786534,117.595694 C73.4870951,117.595694 73.2951352,117.595694 73.1031752,117.595694 C72.0606482,118.56788 68.7587771,117.506733 67.9238719,117.309663 C67.827892,116.737202 67.731912,116.164342 67.6363336,115.591881 C68.4555768,115.56635 68.870419,115.535632 69.3627681,115.30585 C69.3627681,115.401194 69.3627681,115.496537 69.3627681,115.591881 C70.3446551,116.175113 70.2567069,116.698905 71.952219,116.737202 C72.0481989,116.355428 72.1441789,115.973655 72.2401588,115.591881 C71.9136663,115.35053 72.1979919,115.628183 71.952219,115.30585 C70.4326032,115.339759 68.9266416,114.957586 68.2118118,114.160529 C68.1158318,114.160529 68.0198519,114.160529 67.9238719,114.160529 C67.9238719,113.397381 67.9238719,112.633834 67.9238719,111.870686 C68.329076,111.659653 69.0792457,111.356069 69.0748282,111.011795 C70.3611203,111.243971 70.6342013,110.664329 71.6646807,111.011795 C72.0481989,111.011795 72.4317171,111.011795 73.1553819,111.011795 C73.1553819,111.107139 73.1553819,111.202482 73.1553819,111.499284 C73.6577707,111.493699 73.7577666,111.616569 73.9665933,112.443147 C73.8706133,112.443147 73.7746334,112.443147 73.6786534,112.443147 C73.6786534,112.53849 73.6786534,112.633834 73.6786534,112.729577 C73.1031752,112.729577 72.5276971,112.729577 71.952219,112.729577 C71.4566572,111.980391 71.1398028,112.130786 69.9382462,112.156717 Z M86.9146508,117.882124 C84.996658,117.882124 83.0778621,117.882124 81.1598693,117.882124 C80.7622954,117.134135 80.6510551,117.397427 80.5843912,116.164342 C80.4884112,116.164342 80.3924313,116.164342 80.2968529,116.164342 C80.4884112,115.591881 80.6803711,115.01942 80.872331,114.446959 C82.0987862,114.065186 83.1742436,113.809074 84.3251999,113.585675 C84.3251999,113.015608 84.3251999,112.729178 84.3251999,112.443147 C83.8304413,112.257246 83.4216229,112.170679 82.5987655,112.156717 C82.0036094,113.088611 81.7325363,112.826117 80.5843912,112.729577 C80.7928163,111.527608 81.1606725,111.046502 82.5987655,111.011795 C83.3991339,110.258221 84.920356,111.105144 85.7636945,111.499284 C85.915897,111.561517 86.6271125,112.156717 86.6271125,112.156717 C86.6271125,113.874099 86.6271125,115.59228 86.6271125,117.309663 C86.9548098,117.635586 86.7415656,117.310461 86.9146508,117.882124 Z M104.466935,110.725365 C105.104258,110.759673 106.426693,110.9727 106.768848,111.499284 C107.780452,111.541571 107.603351,111.946083 108.207342,112.443147 C108.322197,114.530734 108.676801,116.006766 107.611785,117.309663 C107.248346,117.50035 107.152366,117.985845 107.056386,117.882124 C105.764472,117.882124 104.370955,117.882124 103.028039,117.882124 C102.700342,117.5562 103.027236,117.76803 102.452561,117.595694 C102.240923,117.192777 101.935715,116.73042 101.589544,116.450772 C101.493564,115.401194 101.397584,114.351616 101.399171,113.585675 C101.397584,113.585675 101.493564,113.585675 101.589544,113.585675 C101.685524,112.82492 101.781504,112.347803 101.877083,111.870686 C102.165023,111.775342 102.452561,111.722684 102.740501,111.584256 C102.740501,111.488912 102.740501,111.393568 102.740501,111.499284 C103.246504,111.499284 103.124019,111.499284 103.471394,111.499284 C103.471394,111.202482 103.471394,111.107139 103.471394,111.011795 C103.699497,111.011795 104.083417,111.011795 104.466935,111.011795 C104.466935,111.271896 104.466935,110.821108 104.466935,110.725365 Z M121.44334,117.882124 C120.772283,117.882124 120.100825,117.882124 119.429367,117.882124 C119.333387,116.126843 119.237407,114.255873 119.141427,112.443147 C118.04589,112.248869 118.221385,112.253656 117.127454,112.443147 C117.05557,114.144173 116.846342,115.902247 116.839514,117.882124 C116.072478,117.882124 115.30504,117.882124 114.537602,117.882124 C114.537602,115.59228 114.537602,113.581686 114.537602,111.011795 C115.497,111.107139 116.455996,111.202482 117.414993,111.499284 C117.414993,111.202482 117.414993,111.107139 117.414993,111.011795 C118.953081,110.588533 120.470689,110.762066 120.867862,111.870686 C121.838102,112.825718 121.475467,116.020728 121.44334,117.882124 Z M127.486061,115.591881 C128.061539,115.496537 128.980377,115.401194 129.212495,115.30585 C129.212495,115.401194 129.212495,115.496537 129.212495,115.591881 C129.98154,116.242133 129.733759,116.663001 131.22687,116.737202 C131.322448,116.450772 131.494329,116.164342 131.514408,115.878311 C132.104745,115.636561 131.556173,115.914613 131.802348,115.591881 C130.555412,115.210506 129.308475,114.828733 128.061539,114.446959 C127.498109,113.328367 126.914599,111.75739 128.980377,111.499284 C129.666693,110.315268 131.971417,111.035731 133.240842,111.499284 C133.407101,111.735449 133.460111,111.767762 133.528782,112.443147 C132.991455,112.645403 132.403528,112.727183 131.514408,112.729577 C131.105991,112.440753 130.833713,112.153924 129.787974,112.156717 C129.545012,112.564421 130.012462,112.198604 129.500435,112.443147 C130.048605,112.76907 129.501239,112.55724 130.075913,112.729577 C131.65135,114.859849 133.897442,112.394477 133.816321,117.023233 C133.553681,117.173628 132.953304,117.882124 132.953304,117.882124 C131.514408,117.882124 130.075512,117.882124 128.980377,117.882124 C128.30932,117.5562 128.968329,117.76803 128.061539,117.595694 C127.588868,116.709277 127.515377,117.081875 127.486061,115.591881 Z M5.48429208,111.011795 C7.30670648,111.011795 9.12912088,111.011795 11.1177934,111.011795 C11.1177934,111.488912 11.1177934,111.966029 11.1177934,112.443147 C10.2306816,113.222651 10.2953376,113.467592 9.80057898,114.160529 C9.70459903,114.160529 9.60861907,114.160529 9.51263911,114.160529 C9.03314092,114.73299 8.82471583,115.30585 8.07414454,115.878311 C9.0142662,115.845599 10.4619973,115.715549 11.1177934,116.164342 C11.0475152,116.164342 11.1430936,116.164342 11.2390736,116.164342 C11.2390736,116.736803 11.2390736,117.309663 11.2390736,117.882124 C9.22510083,117.882124 7.21072652,117.882124 5.1967538,117.882124 C5.1967538,117.214319 5.1967538,116.546116 5.1967538,115.878311 C6.16217562,115.349333 7.6042845,113.44605 8.07414454,112.443147 C7.21072652,112.443147 6.34730851,112.443147 5.48429208,112.443147 C5.48429208,111.966029 5.48429208,111.488912 5.48429208,111.011795 Z M17.2817949,111.011795 C17.9528514,111.011795 18.6247111,111.011795 19.2957676,111.011795 C19.9122079,112.665349 19.5981647,115.737091 19.5837075,117.882124 C18.8162694,117.882124 18.0488314,117.882124 17.2817949,117.882124 C17.2817949,115.59228 17.2817949,113.581686 17.2817949,111.011795 Z M53.2489784,111.011795 C53.2148432,112.2373 52.9100366,115.257181 53.8549773,115.591881 C53.8646155,115.917805 53.867025,115.705974 54.1123964,115.878311 C54.2083763,116.164342 54.3043563,116.450772 54.4003362,116.737202 C54.9782239,116.572844 54.6489203,116.77151 54.9758144,116.450772 C55.3500961,116.150778 55.4039091,115.865944 55.8388308,115.591881 C55.8388308,114.065585 55.8388308,112.53849 55.8388308,111.011795 C56.5102889,111.011795 57.181747,111.011795 57.8532051,111.011795 C58.4692438,112.665349 58.1556022,115.737091 58.1407434,117.882124 C56.2227506,117.882124 54.3039547,117.882124 52.3859619,117.882124 C52.0759346,116.995308 51.8397998,117.367906 51.8104838,115.878311 C51.1795862,115.190161 51.4936294,112.525326 51.7827741,111.499284 C52.0173025,111.111926 52.4261209,111.025358 53.2489784,111.011795 Z M29.9423142,113.874498 C29.9423142,113.492725 29.9423142,113.110951 29.9423142,112.729577 C29.344347,112.416419 29.6712411,112.268416 28.503418,112.156717 C27.9520352,112.813351 27.6395984,112.521735 27.3524617,113.588068 C27.4484417,113.588068 27.5444216,113.588068 27.6404016,113.588068 C27.6404016,113.809074 27.6404016,113.779155 27.6404016,113.874498 C28.407438,113.874498 29.1748761,113.874498 29.9423142,113.874498 Z M42.0273553,115.878311 C43.2959774,115.538425 42.9638626,114.523952 42.8903717,113.015608 C42.563076,112.689684 42.7759186,113.01481 42.6028334,112.443147 C42.1233352,112.347803 41.6434354,112.252459 41.1639372,112.156717 C41.1639372,112.252459 41.1639372,112.347803 41.1639372,112.443147 C40.876399,112.53849 40.5884591,112.633834 40.3009208,112.729577 C39.9077644,113.529825 40.002138,114.373158 40.012981,115.30585 C40.6334372,115.66289 40.8567211,116.182693 41.1639372,116.737202 C41.7422265,116.572844 41.4129229,116.77151 41.7394154,116.450772 C42.0671127,116.124449 41.8542701,116.449575 42.0273553,115.878311 Z M105.617891,116.450772 C105.947597,115.222075 106.565242,115.613822 106.768848,114.160529 C106.672868,114.160529 106.576888,114.160529 106.480908,114.160529 C106.480908,113.874498 106.480908,113.588068 106.480908,113.585675 C106.095783,112.566814 105.541991,112.260039 104.466935,112.156717 C103.895071,113.222252 103.613155,113.542192 103.603517,115.30585 C104.599861,115.970064 103.87459,116.350242 105.617891,116.450772 Z M82.3108256,116.737202 C82.8863038,116.737202 83.4617819,116.737202 84.1709895,116.737202 C84.1424766,115.815679 84.3894543,115.779776 84.6127382,115.01942 C84.5167582,115.01942 84.4211799,115.01942 84.3251999,115.01942 C84.3251999,114.924077 84.3251999,114.828733 84.3251999,114.733389 C83.6123781,114.860248 83.2690188,114.996282 82.3108256,115.01942 C82.144969,115.457044 82.0915576,115.488958 82.1028021,116.164342 C82.3509846,116.74917 82.1377404,116.165539 82.3108256,116.737202 Z" id="logo-svg"></path>
            </g>
        </g>
    </g>
</svg>